<svg width="45" height="51" viewBox="0 0 45 51" fill="none" xmlns="http://www.w3.org/2000/svg">
<path d="M22.5 3.1875C26.901 3.1875 30.4688 6.75523 30.4688 11.1562V12.75H14.5312V11.1562C14.5312 6.75523 18.099 3.1875 22.5 3.1875ZM33.6562 12.75V11.1562C33.6562 4.99482 28.6614 0 22.5 0C16.3386 0 11.3438 4.99482 11.3438 11.1562V12.75H0.1875V44.625C0.1875 48.1458 3.04168 51 6.5625 51H38.4375C41.9583 51 44.8125 48.1458 44.8125 44.625V12.75H33.6562ZM3.375 15.9375H41.625V44.625C41.625 46.3854 40.1979 47.8125 38.4375 47.8125H6.5625C4.80209 47.8125 3.375 46.3854 3.375 44.625V15.9375Z" fill="#212529"/>
</svg>
